<?xml version="1.0" encoding="UTF-8" standalone="no"?>
<!-- Created with Inkscape (http://www.inkscape.org/) -->

<svg
   width="17.354189mm"
   height="18.246906mm"
   viewBox="0 0 17.354189 18.246906"
   version="1.1"
   id="svg1"
   sodipodi:docname="Unnamed document 1"
   xmlns:inkscape="http://www.inkscape.org/namespaces/inkscape"
   xmlns:sodipodi="http://sodipodi.sourceforge.net/DTD/sodipodi-0.dtd"
   xmlns="http://www.w3.org/2000/svg"
   xmlns:svg="http://www.w3.org/2000/svg">
  <sodipodi:namedview
     id="namedview1"
     pagecolor="#ffffff"
     bordercolor="#999999"
     borderopacity="1"
     inkscape:showpageshadow="2"
     inkscape:pageopacity="0"
     inkscape:pagecheckerboard="0"
     inkscape:deskcolor="#d1d1d1"
     inkscape:document-units="mm" />
  <defs
     id="defs1" />
  <g
     inkscape:label="Layer 1"
     inkscape:groupmode="layer"
     id="layer1"
     transform="translate(-14.389258,-15.291785)">
    <rect
       style="display:none;fill:#000000;stroke-width:0.3;stroke-linecap:round"
       id="rect1"
       width="50"
       height="50"
       x="0"
       y="0"
       sodipodi:insensitive="true" />
    <path
       id="circle3"
       style="fill:none;stroke:#ffffff;stroke-width:1;stroke-linecap:round;stroke-dasharray:none;stroke-opacity:1"
       d="m 29.635411,23.164862 c 0,0.509005 -0.05158,1.005963 -0.149795,1.485932 -0.09822,0.479969 -0.243069,0.942951 -0.429618,1.384002 -0.186549,0.441052 -0.414793,0.860174 -0.679793,1.252423 -0.264999,0.392251 -0.566752,0.75763 -0.900319,1.091195 -0.333565,0.333567 -0.698944,0.63532 -1.091195,0.900319 -0.392249,0.265 -0.811371,0.493244 -1.252423,0.679793 -0.441051,0.186549 -0.904033,0.331402 -1.384002,0.429618 -0.479969,0.09822 -0.976927,0.149795 -1.485932,0.149795 -0.509005,0 -1.005963,-0.05158 -1.485932,-0.149795 -0.479969,-0.09822 -0.942951,-0.243069 -1.384002,-0.429618 -0.441052,-0.186549 -0.860173,-0.414793 -1.252423,-0.679793 -0.392251,-0.264999 -0.75763,-0.566752 -1.091195,-0.900319 -0.333567,-0.333565 -0.63532,-0.698944 -0.900319,-1.091195 -0.264999,-0.392249 -0.493244,-0.811371 -0.679793,-1.252423 -0.186549,-0.441051 -0.331402,-0.904033 -0.429618,-1.384002 -0.09822,-0.479969 -0.149795,-0.976927 -0.149795,-1.485932 0,-0.509005 0.05158,-1.005963 0.149795,-1.485932 0.09822,-0.479969 0.243069,-0.942951 0.429618,-1.384002 0.186549,-0.441052 0.414794,-0.860173 0.679793,-1.252423 0.264999,-0.392251 0.566752,-0.75763 0.900319,-1.091195 0.333565,-0.333567 0.698944,-0.63532 1.091195,-0.900319 0.39225,-0.264999 0.811371,-0.493244 1.252423,-0.679793 0.441051,-0.186549 0.904033,-0.331402 1.384002,-0.429618 0.479969,-0.09822 0.976927,-0.149795 1.485932,-0.149795 0.509005,0 1.005963,0.05158 1.485932,0.149795 0.479969,0.09822 0.942951,0.243069 1.384002,0.429618 0.441052,0.186549 0.860174,0.414794 1.252423,0.679793 0.392251,0.264999 0.75763,0.566752 1.091195,0.900319 0.333567,0.333565 0.63532,0.698944 0.900319,1.091195 0.265,0.39225 0.493244,0.811371 0.679793,1.252423 0.186549,0.441051 0.331402,0.904033 0.429618,1.384002 0.09822,0.479969 0.149795,0.976927 0.149795,1.485932 z"
       sodipodi:nodetypes="sssssssssssssssss" />
    <rect
       style="fill:#ffffff;fill-opacity:1;stroke:none;stroke-width:1;stroke-linecap:round;stroke-dasharray:none;stroke-opacity:1"
       id="rect2"
       width="1.383875"
       height="6.4981942"
       x="-1.9613683"
       y="39.375748"
       ry="0.69193751"
       transform="rotate(-45)" />
  </g>
</svg>
